<?xml version="1.0" encoding="UTF-8"?>

<svg xmlns="http://www.w3.org/2000/svg" viewBox="139 144 957 948" preserveAspectRatio="xMidYMid meet">


<path d="M0 0 C0.509 0.014 0.509 0.014 3.083 0.085 C5.148 0.148 7.212 0.224 9.275 0.315 C11.698 0.419 14.123 0.469 16.547 0.508 C55.313 1.589 95.503 10.057 132.125 22.438 C134.065 23.07 136.005 23.701 137.945 24.332 C184.662 39.775 227.509 64.875 265.125 96.438 C266.084 97.211 267.043 97.984 268.031 98.781 C276.456 105.733 284.199 113.299 291.938 121 C292.468 121.526 292.468 121.526 295.155 124.189 C300.851 129.908 306.191 135.744 311.223 142.054 C313.518 144.93 315.944 147.677 318.375 150.438 C324.745 157.939 330.173 165.998 335.614 174.182 C336.947 176.172 338.311 178.143 339.68 180.109 C378.906 236.956 401.832 308.805 406.125 377.438 C406.235 378.932 406.344 380.426 406.457 381.965 C407.023 390.491 407.27 399.02 407.375 407.562 C407.396 408.523 407.418 409.483 407.44 410.472 C407.487 420.323 405.294 426.418 397.125 432.438 C392.637 434.682 390.289 434.684 385.317 434.678 C383.688 434.681 382.058 434.684 380.379 434.686 C378.571 434.679 376.762 434.672 374.954 434.665 C373.052 434.664 371.15 434.664 369.248 434.665 C364.081 434.666 358.914 434.654 353.747 434.64 C348.349 434.628 342.95 434.627 337.551 434.624 C327.327 434.618 317.103 434.602 306.878 434.582 C295.239 434.559 283.599 434.548 271.959 434.538 C248.015 434.517 224.07 434.482 200.125 434.438 C200.337 433.014 200.548 431.591 200.766 430.125 C201.043 428.23 201.321 426.334 201.598 424.438 C201.737 423.503 201.877 422.569 202.02 421.606 C203.152 413.824 203.611 406.179 203.562 398.312 C203.582 397.116 203.602 395.92 203.623 394.688 C203.614 378 196.019 362.422 181.371 353.82 C167.504 346.552 152.817 343.776 137.606 340.721 C133.385 339.873 129.165 339.016 124.946 338.158 C122.762 337.717 120.577 337.28 118.392 336.847 C115.198 336.213 112.007 335.563 108.816 334.91 C108.331 334.816 108.331 334.816 105.877 334.338 C93.725 331.813 89.376 326.989 84.75 315.688 C80.759 305.942 75.872 297.519 69.125 289.438 C68.114 288.159 67.104 286.88 66.062 285.562 C49.477 266.982 25.377 256.695 2.125 249.438 C1.268 249.151 0.411 248.865 -0.473 248.57 C-7.07 246.434 -13.803 245.269 -20.629 244.086 C-23.875 243.438 -23.875 243.438 -24.875 242.438 C-24.984 239.552 -25.027 236.691 -25.029 233.805 C-25.033 232.888 -25.038 231.971 -25.042 231.027 C-25.056 227.93 -25.062 224.833 -25.068 221.737 C-25.076 219.526 -25.084 217.316 -25.093 215.105 C-25.119 207.821 -25.134 200.538 -25.148 193.254 C-25.154 190.749 -25.159 188.244 -25.165 185.739 C-25.186 175.317 -25.205 164.895 -25.216 154.473 C-25.232 139.53 -25.266 124.586 -25.323 109.643 C-25.361 99.141 -25.381 88.64 -25.386 78.139 C-25.39 71.865 -25.402 65.592 -25.434 59.319 C-25.464 53.411 -25.471 47.504 -25.459 41.597 C-25.459 39.432 -25.467 37.268 -25.484 35.103 C-25.671 10.827 -25.671 10.827 -15.742 2.84 C-10.54 -0.213 -5.905 -0.291 0 0 Z " fill="#F6B99A" transform="translate(654.875,174.5625)"></path>
<path d="M0 0 C1.755 0.925 3.506 1.856 5.255 2.793 C39.276 19.695 68.739 22.054 105.928 20.834 C106.815 20.805 107.702 20.776 108.616 20.746 C112.816 20.603 117.008 20.426 121.204 20.202 C134.623 19.567 141.058 20.911 149.36 31.98 C168.959 90.776 129.54 186.769 103.36 237.98 C102.929 238.831 102.498 239.682 102.054 240.558 C89.368 265.334 72.481 287.962 54.36 308.98 C53.757 309.686 53.154 310.391 52.532 311.117 C43.129 322.003 33.419 332.723 22.505 342.113 C20.209 344.112 17.975 346.17 15.735 348.23 C9.536 353.816 2.974 358.899 -3.64 363.98 C-4.854 364.929 -6.068 365.878 -7.32 366.855 C-28.504 383.145 -51.63 396.331 -75.64 407.98 C-76.768 408.541 -77.896 409.102 -79.058 409.68 C-125.784 432.33 -177.437 443.504 -228.89 448.168 C-229.348 448.21 -229.348 448.21 -231.666 448.423 C-252.973 450.22 -252.973 450.22 -258.64 443.668 C-260.682 438.181 -256.337 431.794 -254.202 426.668 C-250.375 417.278 -247.093 407.724 -243.89 398.105 C-243.43 396.728 -242.971 395.351 -242.498 393.932 C-237.977 380.226 -234.163 366.688 -231.577 352.48 C-231.321 351.086 -231.064 349.692 -230.799 348.256 C-224.64 314.284 -222.538 280.352 -226.64 245.98 C-226.825 244.284 -227.01 242.587 -227.195 240.891 C-228.874 226.31 -231.541 211.896 -234.215 197.471 C-234.512 195.858 -234.81 194.244 -235.116 192.582 C-235.385 191.142 -235.654 189.701 -235.931 188.217 C-237.363 179.658 -237.822 171.32 -237.827 162.668 C-237.84 161.617 -237.852 160.566 -237.865 159.482 C-237.897 141.663 -234.333 125.891 -220.265 114.168 C-210.217 108.489 -196.47 108.725 -185.202 107.543 C-150.65 103.871 -119.013 92.52 -93.64 67.98 C-92.512 66.896 -91.384 65.812 -90.222 64.695 C-79.065 53.467 -69.215 37.61 -64.872 22.269 C-63.64 19.98 -63.64 19.98 -61.235 19.341 C-60.227 19.335 -59.219 19.328 -58.18 19.321 C-57.039 19.301 -55.898 19.282 -54.723 19.262 C-53.486 19.265 -52.25 19.269 -50.976 19.273 C-49.713 19.258 -48.451 19.243 -47.151 19.228 C-43.105 19.185 -39.06 19.176 -35.015 19.168 C-32.278 19.145 -29.541 19.119 -26.804 19.092 C-20.083 19.029 -13.362 18.994 -6.64 18.98 C-7.898 18.403 -9.156 17.825 -10.452 17.23 C-15.485 14.526 -17.41 12.792 -18.14 7.043 C-16.857 -3.381 -8.237 -4.021 0 0 Z " fill="#B8A9C9" transform="translate(911.639892578125,613.01953125)"></path>
<path d="M0 0 C1.373 -0.034 2.746 -0.069 4.16 -0.104 C14.335 -0.148 21.253 1.404 27.125 10.438 C29.547 15.09 29.371 19.359 29.366 24.543 C29.366 25.002 29.366 25.002 29.371 27.327 C29.374 30.408 29.363 33.488 29.352 36.568 C29.351 38.775 29.352 40.983 29.353 43.19 C29.354 49.186 29.342 55.181 29.328 61.177 C29.315 67.441 29.314 73.706 29.312 79.971 C29.306 91.835 29.289 103.699 29.269 115.563 C29.247 129.07 29.236 142.576 29.226 156.083 C29.205 183.868 29.17 211.653 29.125 239.438 C28.671 239.437 28.671 239.437 26.373 239.435 C22.2 239.431 18.028 239.428 13.855 239.426 C12.427 239.424 10.999 239.423 9.527 239.421 C-48.431 239.396 -97.31 253.884 -139.875 294.438 C-140.531 295.052 -141.187 295.667 -141.863 296.301 C-147.028 301.276 -151.469 306.797 -155.875 312.438 C-156.385 313.087 -156.894 313.737 -157.419 314.406 C-180.74 344.367 -210.573 388.771 -194.75 428.188 C-194.131 429.59 -193.512 430.993 -192.875 432.438 C-192.875 433.098 -192.875 433.757 -192.875 434.438 C-218.422 434.508 -243.97 434.56 -269.517 434.593 C-281.38 434.608 -293.242 434.629 -305.104 434.664 C-315.444 434.694 -325.783 434.713 -336.123 434.72 C-341.597 434.724 -347.071 434.733 -352.546 434.755 C-357.7 434.775 -362.854 434.781 -368.009 434.777 C-369.899 434.778 -371.789 434.784 -373.678 434.795 C-376.264 434.81 -378.849 434.806 -381.434 434.798 C-382.157 434.8 -382.157 434.8 -385.814 434.807 C-394.922 433.979 -400.891 430.474 -405.018 422.125 C-414.213 393.289 -403.122 350.399 -396.875 321.438 C-396.656 320.414 -396.437 319.39 -396.212 318.335 C-386.631 274.297 -370.024 232.104 -346.875 193.438 C-346.375 192.601 -345.875 191.765 -345.36 190.904 C-334.965 173.675 -323.151 157.561 -309.875 142.438 C-309.242 141.705 -308.609 140.973 -307.957 140.219 C-306.276 138.28 -304.578 136.358 -302.875 134.438 C-302.231 133.71 -301.587 132.982 -300.924 132.231 C-295.456 126.098 -289.812 120.182 -284 114.375 C-283.121 113.497 -282.242 112.618 -281.336 111.713 C-275.454 105.887 -269.421 100.507 -262.875 95.438 C-260.997 93.837 -259.122 92.232 -257.25 90.625 C-249.793 84.414 -241.896 78.885 -233.875 73.438 C-233.096 72.907 -232.317 72.377 -231.514 71.831 C-218.735 63.189 -205.542 55.58 -191.875 48.438 C-190.51 47.719 -189.145 47.001 -187.738 46.262 C-141.521 22.559 -90.481 7.958 -38.875 2.438 C-37.309 2.252 -35.743 2.066 -34.129 1.875 C-22.771 0.612 -11.424 0.151 0 0 Z " fill="#B7C5B0" transform="translate(577.875,174.5625)"></path>
<path d="M0 0 C0.498 -0.003 0.498 -0.003 3.016 -0.017 C5.114 -0.027 7.211 -0.033 9.309 -0.037 C12.435 -0.047 15.561 -0.078 18.688 -0.109 C37.12 -0.207 55.265 1.468 73.172 6.016 C74.213 6.274 75.254 6.533 76.326 6.799 C109.614 15.317 140.968 32.611 153.234 66.266 C163.042 92.924 187.494 93.922 212.484 98.828 C216.106 99.546 219.727 100.266 223.347 100.989 C225.581 101.434 227.816 101.876 230.052 102.314 C261.001 108.449 261.001 108.449 267.266 122.52 C270.661 132.564 269.134 142.519 267.484 152.766 C267.302 153.909 267.121 155.052 266.933 156.23 C262.753 181.826 255.098 205.671 237.234 225.203 C236.465 226.054 235.695 226.905 234.902 227.781 C213.118 250.727 181.962 258.945 151.422 261.766 C126.449 264.093 103.655 269.157 91.234 293.203 C89.682 296.814 88.398 300.451 87.234 304.203 C86.863 305.337 86.492 306.472 86.109 307.641 C83.854 316.823 82.897 325.759 82.984 335.203 C82.988 335.746 82.988 335.746 83.007 338.496 C83.206 353.642 85.085 368.121 88.197 382.919 C90.112 392.177 91.601 401.477 92.984 410.828 C93.09 411.527 93.09 411.527 93.622 415.065 C101.751 471.144 96.985 581.453 53.234 625.203 C49.676 625.455 46.231 625.573 42.672 625.578 C41.688 625.603 40.703 625.627 39.689 625.652 C36.855 625.664 36.855 625.664 32.234 625.203 C31.056 620.488 31.654 619.553 33.664 615.277 C34.208 614.101 34.751 612.924 35.312 611.711 C35.905 610.45 36.498 609.19 37.109 607.891 C38.324 605.239 39.535 602.585 40.742 599.93 C41.341 598.614 41.939 597.298 42.556 595.942 C50.372 578.531 56.035 560.642 61.3 542.316 C62.044 539.837 62.902 537.393 63.797 534.965 C65.837 528.207 66.877 521.343 67.969 514.375 C68.357 511.906 68.759 509.438 69.16 506.971 C71.132 494.627 72.361 482.489 72.543 469.992 C72.558 468.958 72.573 467.923 72.589 466.857 C72.899 440.893 71.367 416.694 66.234 391.203 C65.739 388.618 65.247 386.032 64.758 383.445 C64.121 380.089 63.479 376.735 62.796 373.388 C55.202 336.067 57.798 289.405 86.797 261.641 C104.086 246.717 124.723 242.573 146.672 240.141 C184.255 235.898 216.344 225.297 234.234 189.203 C238.537 179.225 240.939 168.795 243.234 158.203 C242.791 158.152 242.791 158.152 240.547 157.891 C229.666 155.632 223.886 146.506 219.234 137.203 C219.251 133.556 219.493 129.958 219.75 126.32 C219.234 123.203 219.234 123.203 216.717 122.115 C212.831 121.097 208.947 120.271 205.004 119.504 C144.236 107.406 144.236 107.406 133.234 77.203 C123.256 51.909 107.094 39.43 81.234 31.203 C80.078 30.805 78.922 30.406 77.73 29.996 C56.437 23.107 35.084 21.833 12.859 21.828 C11.837 21.826 10.815 21.824 9.761 21.822 C-1.232 21.825 -11.958 21.957 -22.766 24.203 C-23.66 24.38 -24.555 24.557 -25.477 24.739 C-62.187 32.327 -90.172 52.412 -112.766 82.203 C-113.179 82.745 -113.179 82.745 -115.273 85.484 C-148.711 130.641 -148.711 130.641 -141.391 152.328 C-135.855 163.983 -125.391 173.172 -115.434 181.048 C-107.915 187.018 -101.104 193.59 -94.357 200.406 C-92.51 202.272 -90.654 204.13 -88.797 205.986 C-79.053 215.762 -79.053 215.762 -74.734 220.824 C-68.681 227.714 -61.787 232.503 -52.336 231.816 C-39.068 228.651 -32.745 212.67 -28.766 201.203 C-18.803 165.578 -26.361 126.229 -35.848 91.348 C-37.159 85.425 -37.913 81.821 -34.328 76.766 C-29.724 73.454 -27.33 73.353 -21.766 74.203 C-16.051 77.889 -14.666 81.264 -13.078 87.766 C-12.876 88.57 -12.674 89.374 -12.465 90.203 C-11.883 92.532 -11.324 94.868 -10.766 97.203 C-10.224 99.224 -9.682 101.245 -9.141 103.266 C-7.298 110.845 -5.997 118.504 -4.766 126.203 C-4.696 126.612 -4.696 126.612 -4.342 128.681 C-2.23 141.219 -1.484 153.55 -1.453 166.266 C-1.448 167.632 -1.442 168.998 -1.437 170.406 C-1.513 181.271 -2.146 191.892 -5.766 202.203 C-6.147 203.827 -6.522 205.452 -6.891 207.078 C-12.472 227.665 -25.322 245.886 -45.766 253.203 C-65.124 257.849 -79.592 247.12 -92.766 234.203 C-95.654 231.135 -98.49 228.024 -101.324 224.906 C-105.398 220.475 -109.638 216.212 -113.891 211.953 C-114.638 211.202 -115.385 210.45 -116.155 209.676 C-121.517 204.327 -121.517 204.327 -123.766 203.203 C-123.879 203.946 -123.879 203.946 -124.453 207.703 C-132.11 249.263 -154.241 290.423 -180.21 323.235 C-181.7 325.12 -183.173 327.019 -184.645 328.918 C-189.989 335.798 -195.499 342.505 -201.156 349.129 C-203.523 351.917 -205.84 354.736 -208.141 357.578 C-211.714 361.974 -215.409 366.254 -219.141 370.516 C-224.36 376.487 -229.309 382.624 -234.168 388.895 C-236.554 391.934 -239.011 394.886 -241.516 397.828 C-251.703 409.968 -261.3 422.804 -269.766 436.203 C-270.001 436.572 -270.001 436.572 -271.193 438.438 C-281.781 455.05 -291.412 471.88 -298.766 490.203 C-303.995 488.896 -305.513 486.564 -309.016 482.516 C-310.093 481.295 -311.171 480.074 -312.281 478.816 C-316.11 473.248 -315.437 470.389 -312.781 464.508 C-311.874 462.69 -310.952 460.881 -310.016 459.078 C-309.769 458.595 -309.769 458.595 -308.52 456.15 C-300.387 440.45 -291.056 425.579 -280.766 411.203 C-280.499 410.83 -280.499 410.83 -279.149 408.942 C-270.796 397.308 -261.957 386.181 -252.766 375.203 C-251.221 373.31 -249.679 371.414 -248.141 369.516 C-241.819 361.78 -235.266 354.237 -228.719 346.691 C-222.825 339.874 -217.136 332.949 -211.613 325.828 C-209.096 322.624 -206.526 319.477 -203.927 316.34 C-197.011 307.965 -190.711 299.304 -184.766 290.203 C-183.884 288.864 -183.002 287.524 -182.094 286.145 C-166.794 262.349 -137.48 213.347 -144.766 184.203 C-146.413 182.556 -148.063 180.912 -149.734 179.289 C-163.076 165.588 -169.481 147.637 -164.266 128.891 C-163.476 126.646 -162.639 124.417 -161.766 122.203 C-161.241 120.87 -160.716 119.537 -160.176 118.164 C-135.774 60.074 -85.954 10.255 -21.766 1.203 C-14.504 0.395 -7.303 0.034 0 0 Z " fill="#143C3D" transform="translate(567.765625,436.796875)"></path>
<path d="M0 0 C0.857 -0.001 1.714 -0.002 2.597 -0.003 C5.472 -0.004 8.348 0.001 11.224 0.007 C13.284 0.007 15.344 0.007 17.403 0.006 C23 0.006 28.597 0.012 34.193 0.019 C40.04 0.025 45.887 0.026 51.734 0.027 C62.809 0.03 73.883 0.038 84.958 0.048 C97.564 0.059 110.171 0.065 122.778 0.07 C148.714 0.08 174.649 0.098 200.585 0.12 C194.453 44.812 164.659 85.717 136.194 119.046 C133.828 121.834 131.51 124.653 129.21 127.495 C125.044 132.616 120.723 137.594 116.386 142.568 C112.44 147.106 108.602 151.716 104.819 156.39 C102.323 159.44 99.769 162.436 97.21 165.433 C91.482 172.188 85.988 179.103 80.585 186.12 C79.615 187.377 78.646 188.634 77.647 189.929 C67.779 202.894 58.878 216.434 50.147 230.183 C49.905 230.563 49.905 230.563 48.68 232.489 C46.255 236.339 44.016 240.199 41.924 244.241 C41.152 245.521 40.38 246.801 39.585 248.12 C35.935 246.904 35.68 246.065 33.835 242.8 C33.574 242.342 33.574 242.342 32.257 240.024 C31.705 239.025 31.153 238.025 30.585 236.995 C30.009 235.964 29.434 234.932 28.841 233.869 C15.865 210.315 5.024 185.646 -3.415 160.12 C-3.929 158.591 -4.442 157.063 -4.97 155.487 C-18.099 115.286 -25.503 72.484 -25.665 30.183 C-25.686 28.813 -25.707 27.443 -25.728 26.032 C-25.733 24.712 -25.738 23.391 -25.744 22.03 C-25.753 20.846 -25.762 19.661 -25.772 18.441 C-24.893 10.253 -19.535 4.771 -12.415 1.12 C-8.082 0.037 -4.468 -0.003 0 0 Z " fill="#B8D3CE" transform="translate(197.41546630859375,632.8797454833984)"></path>
<path d="M0 0 C2.015 4.03 1.725 7.869 -0.672 11.61 C-3.34 14.349 -4.878 14.987 -8.555 15.926 C-9.798 16.246 -11.042 16.567 -12.323 16.897 C-22.909 19.394 -33.51 21.817 -44.125 24.188 C-47.77 25.005 -51.416 25.825 -55.061 26.644 C-57.315 27.15 -59.57 27.656 -61.825 28.16 C-62.841 28.387 -63.856 28.614 -64.903 28.848 C-65.348 28.948 -65.348 28.948 -67.601 29.451 C-69.74 29.941 -71.871 30.468 -74 31 C-82.939 31.679 -82.939 31.679 -87.125 29 C-89.635 24.984 -89.728 22.657 -89 18 C-79.389 4.603 -44.252 3.093 -28.625 -0.438 C-27.081 -0.792 -25.537 -1.146 -23.947 -1.51 C-22.492 -1.836 -21.038 -2.161 -19.539 -2.496 C-18.252 -2.787 -16.965 -3.077 -15.639 -3.377 C-9.003 -4.513 -4.938 -4.938 0 0 Z " fill="#143D3E" transform="translate(986,537)"></path>
<path d="M0 0 C3.26 3.358 3.508 5.489 3.062 10.125 C0.539 14.368 -2.363 17.803 -5.842 21.288 C-6.813 22.266 -7.784 23.243 -8.785 24.25 C-9.826 25.288 -10.868 26.325 -11.941 27.395 C-13.016 28.471 -14.091 29.548 -15.198 30.657 C-17.466 32.927 -19.737 35.193 -22.01 37.458 C-25.498 40.935 -28.975 44.423 -32.451 47.912 C-34.656 50.115 -36.861 52.318 -39.066 54.52 C-40.11 55.567 -41.154 56.615 -42.229 57.695 C-43.197 58.656 -44.165 59.618 -45.162 60.609 C-46.014 61.459 -46.866 62.309 -47.743 63.185 C-51.512 66.517 -55.058 66.63 -59.938 66.125 C-64.048 63.414 -64.827 61.853 -65.57 56.969 C-64.701 50.311 -61.724 47.914 -56.875 43.562 C-55.361 42.147 -53.849 40.729 -52.34 39.309 C-51.585 38.605 -50.831 37.902 -50.053 37.177 C-47.562 34.761 -45.331 32.153 -43.079 29.515 C-38.451 24.35 -33.467 19.508 -28.556 14.614 C-26.609 12.671 -24.666 10.724 -22.725 8.775 C-21.487 7.539 -20.25 6.302 -19.012 5.066 C-18.453 4.508 -18.453 4.508 -15.624 1.682 C-10.94 -2.776 -5.669 -3.619 0 0 Z " fill="#153E3E" transform="translate(934.9375,447.875)"></path>
<path d="M0 0 C0.676 0.272 0.676 0.272 4.1 1.646 C6.953 2.795 9.803 3.951 12.65 5.114 C17.007 6.889 21.375 8.637 25.744 10.381 C28.518 11.502 31.29 12.625 34.062 13.75 C34.715 14.011 34.715 14.011 38.018 15.329 C39.233 15.829 40.448 16.329 41.7 16.844 C42.766 17.278 43.832 17.711 44.931 18.157 C49.548 20.624 52.575 22.91 53.332 28.207 C52.732 32.405 51.798 35.724 47.832 37.707 C39.731 38.671 33.181 35.501 25.832 32.52 C24.492 31.986 23.151 31.452 21.77 30.902 C18.926 29.767 16.084 28.625 13.244 27.479 C8.78 25.686 4.303 23.936 -0.18 22.191 C-3.072 21.052 -5.964 19.911 -8.855 18.77 C-10.226 18.239 -11.597 17.708 -13.01 17.161 C-14.283 16.652 -15.556 16.142 -16.867 15.617 C-17.99 15.175 -19.112 14.733 -20.268 14.278 C-25.103 11.659 -26.967 9.134 -27.73 3.707 C-25.537 -11.889 -9.415 -3.849 0 0 Z " fill="#143D3F" transform="translate(921.16796875,616.29296875)"></path>
<path d="M0 0 C6.605 4.362 9.63 9.287 10.25 17.188 C9.69 25.73 7.321 31.319 0 36 C-7.599 37.169 -11.598 34.908 -16.375 29.125 C-19.133 22.124 -19.533 14.36 -16.375 7.438 C-15.591 6.633 -14.808 5.829 -14 5 C-13.092 4.051 -12.185 3.102 -11.25 2.125 C-7.088 -0.596 -4.89 -0.764 0 0 Z " fill="#143C3D" transform="translate(670,526)"></path>
</svg>